<?xml version="1.0" encoding="UTF-8" standalone="no" ?>
<!DOCTYPE svg PUBLIC "-//W3C//DTD SVG 1.1//EN" "http://www.w3.org/Graphics/SVG/1.1/DTD/svg11.dtd">
<svg xmlns="http://www.w3.org/2000/svg" xmlns:xlink="http://www.w3.org/1999/xlink" version="1.1" width="1080" height="1080" viewBox="0 0 1080 1080" xml:space="preserve">
<desc>Created with Fabric.js 5.2.4</desc>
<defs>
</defs>
<g transform="matrix(1 0 0 1 540 540)" id="fadc1096-517f-46db-a769-d783926276db"  >
<rect style="stroke: none; stroke-width: 1; stroke-dasharray: none; stroke-linecap: butt; stroke-dashoffset: 0; stroke-linejoin: miter; stroke-miterlimit: 4; fill: rgb(0,0,0); fill-rule: nonzero; opacity: 1;" vector-effect="non-scaling-stroke"  x="-540" y="-540" rx="0" ry="0" width="1080" height="1080" />
</g>
<g transform="matrix(1 0 0 1 540 540)" id="ac0f2a5c-71b1-4bf4-88d1-a9a7ce5b6a0c"  >
</g>
<g transform="matrix(19.05 0 0 19.05 540 540)"  >
<g style="opacity: 1;"   >
		<g transform="matrix(1 0 0 1 1.7 -1.28)" id="Layer_1"  >
<path style="stroke: none; stroke-width: 1; stroke-dasharray: none; stroke-linecap: butt; stroke-dashoffset: 0; stroke-linejoin: miter; stroke-miterlimit: 4; fill: rgb(255,255,255); fill-rule: nonzero; opacity: 1;" vector-effect="non-scaling-stroke"  transform=" translate(-30.05, -27.06)" d="M 30.071 27.101 L 30.071 27.023999999999997 C 30.055000000000003 27.049999999999997 30.038 27.075999999999997 30.021 27.101 L 30.071 27.101 z" stroke-linecap="round" />
</g>
		<g transform="matrix(1 0 0 1 -0.14 1.19)" id="Layer_1"  >
<path style="stroke: none; stroke-width: 1; stroke-dasharray: none; stroke-linecap: butt; stroke-dashoffset: 0; stroke-linejoin: miter; stroke-miterlimit: 4; fill: rgb(255,255,255); fill-rule: nonzero; opacity: 1;" vector-effect="non-scaling-stroke"  transform=" translate(-28.21, -29.54)" d="M 49.265 4.667 L 7.145 4.667 C 5.129 4.667 3.4939999999999998 6.263 3.4939999999999998 8.23 L 3.4939999999999998 50.843 C 3.4939999999999998 52.809000000000005 5.129 54.405 7.145 54.405 L 49.265 54.405 C 51.284 54.405 52.919 52.808 52.919 50.843 L 52.919 8.23 C 52.919 6.262 51.283 4.667 49.265 4.667 z M 18.475 46.304 L 11.010000000000002 46.304 L 11.010000000000002 23.845 L 18.475 23.845 L 18.475 46.304 z M 14.743 20.777 L 14.693 20.777 C 12.189 20.777 10.568999999999999 19.052 10.568999999999999 16.897000000000002 C 10.568999999999999 14.694000000000003 12.238999999999999 13.017000000000003 14.791999999999998 13.017000000000003 C 17.345999999999997 13.017000000000003 18.916999999999998 14.694000000000003 18.967 16.897000000000002 C 18.967 19.052 17.345 20.777 14.743 20.777 z M 45.394 46.304 L 37.929 46.304 L 37.929 34.286 C 37.929 31.268 36.849000000000004 29.208000000000002 34.148 29.208000000000002 C 32.086000000000006 29.208000000000002 30.858000000000004 30.597 30.317000000000004 31.939 C 30.120000000000005 32.418 30.072000000000003 33.088 30.072000000000003 33.76 L 30.072000000000003 46.303 L 22.607000000000003 46.303 C 22.607000000000003 46.303 22.705000000000002 25.948999999999998 22.607000000000003 23.843999999999998 L 30.072000000000003 23.843999999999998 L 30.072000000000003 27.022999999999996 C 31.064000000000004 25.492999999999995 32.838 23.313999999999997 36.801 23.313999999999997 C 41.712 23.313999999999997 45.395 26.524999999999995 45.395 33.42399999999999 L 45.395 46.304 z" stroke-linecap="round" />
</g>
</g>
</g>
</svg>